<?xml version="1.0" encoding="utf-8"?>
<!-- Generator: Adobe Illustrator 25.0.0, SVG Export Plug-In . SVG Version: 6.00 Build 0)  -->
<svg version="1.1" id="Layer_1" xmlns="http://www.w3.org/2000/svg" xmlns:xlink="http://www.w3.org/1999/xlink" x="0px" y="0px"
	 viewBox="0 0 283.5 107.7" style="enable-background:new 0 0 283.5 107.7;" xml:space="preserve">
<style type="text/css">
	.st0{fill:#FFFFFF;}
	.st1{fill:#E79130;}
	.st2{fill:none;stroke:#E79130;stroke-width:0.75;stroke-miterlimit:10;}
	.st3{fill:none;stroke:#E79130;stroke-width:0.5;stroke-miterlimit:10;}
</style>
<rect y="5.6" class="st0" width="283.5" height="102.1"/>
<g>
	<path class="st1" d="M75.7,66.1c0-3.7-2.2-6.4-6.2-6.4s-7.2,0.3-7.2,4.7c0,2.8,0.1,4.1,0.1,4.1h-8.7V65h-2.9l0.1,26.2
		c7.8,0,14.6,0,15.9,0c1.3,1.4,2.6,2,5.4,1.9C82.3,92.9,75.7,69.7,75.7,66.1z M68.9,62.5c2.2,0,4,1.3,4,2.8c0,1.5-1.8,3.2-4,3.2
		s-4-1.7-4-3.2C64.9,63.8,66.7,62.5,68.9,62.5z M64.5,74.5h3.1v3.3h-3.1V74.5z M69.2,74.6h3.1v3.3h-3.1V74.6z M59.9,74.5H63v3.3
		h-3.1V74.5z M55.2,74.6h3.1v3.3h-3.1V74.6z M74.5,88.2H55.2v-8.9h19.3C74.5,79.3,74.5,88.2,74.5,88.2z"/>
	<rect x="26.5" y="36.6" class="st1" width="32" height="12.3"/>
	<polygon class="st1" points="57.5,33.7 56.1,33.7 56.1,30.4 29.3,30.4 29.3,33.7 26.4,33.7 26.4,35.8 57.5,35.8 	"/>
	<rect x="27.2" y="49.6" class="st1" width="30.5" height="1.7"/>
	<rect x="28.5" y="52.3" class="st1" width="28.5" height="1.7"/>
	<rect x="64.9" y="74.9" class="st1" width="2.3" height="2.5"/>
	<rect x="69.6" y="75" class="st1" width="2.3" height="2.5"/>
	<rect x="55.6" y="75" class="st1" width="2.3" height="2.5"/>
	<rect x="60.3" y="74.9" class="st1" width="2.3" height="2.5"/>
	<path class="st1" d="M27.2,78.6c-2.1,0-3.8,1.7-3.8,3.8c0,2.1,1.7,3.8,3.8,3.8s3.8-1.7,3.8-3.8C31,80.3,29.3,78.6,27.2,78.6z
		 M27.2,84.4c-1.1,0-2.1-0.9-2.1-2.1s0.9-2.1,2.1-2.1s2.1,0.9,2.1,2.1C29.3,83.5,28.4,84.4,27.2,84.4z"/>
	<path class="st1" d="M68.9,67.4c1.8,0,3.3-0.9,3.3-2.1s-1.5-2.1-3.3-2.1s-3.3,1-3.3,2.1C65.6,66.5,67.1,67.4,68.9,67.4z M68.9,64.2
		c0.9,0,1.7,0.5,1.7,1.2c0,0.6-0.8,1.2-1.7,1.2c-0.9,0-1.7-0.5-1.7-1.2C67.2,64.7,67.9,64.2,68.9,64.2z"/>
	<rect x="28.6" y="55.2" class="st1" width="28.4" height="5.8"/>
	<rect x="28.5" y="61.6" class="st1" width="28.4" height="2.4"/>
	<path class="st1" d="M35.7,64.8l-0.1,26.3c4.4,0,9.6,0,14.4,0l-0.1-26.2L35.7,64.8z M41,88.1h-3V76.7h3V88.1z M48.2,88.1h-3.3V76.7
		h3.3V88.1z"/>
	<path class="st1" d="M32.1,68.4h-5.5v2.4c0,0-6.9-0.6-6.9,10.2c0,3.5-1,10.1,4.8,10.1c0.8,0,4.9,0,10.2,0l0.1-26.3H32L32.1,68.4z
		 M27.2,87.4c-2.8,0-5-2.2-5-5s2.2-5,5-5s5,2.2,5,5S30,87.4,27.2,87.4z"/>
</g>
<polygon class="st0" points="34.9,110.6 90.5,14.2 90.5,110.6 "/>
<g>
	<path class="st1" d="M81,74.2c1.5-2.5,3.4-4.7,5.4-5.9c2-1.2,3.8-1.7,6.2-1.6c2.8,0,4.9,0.8,6.8,2.2c3,2.2,4.5,6.6,3.4,10.5
		c-1.1,4.2-4.8,7.8-10.1,8.2c-3.6,0.3-6.2-0.7-8.1-2.1c-1.8-1.3-2.8-2.3-4-4.6c-1.1,3.7-2.1,6.9-3.6,10.2c-0.4,0.9-1.2,1.8-2,1.4
		c-1-0.5-0.5-1.7-0.2-2.8c0.4-1.5,1.3-4.1,1.9-6.3c0.6-2.1,1-4.1,1.3-5.3c0.3-0.9,0.4-2,0.5-2.6C78.8,74.7,80.5,75.1,81,74.2z
		 M82.9,79.2c0.7,1.6,1.6,2.8,3.2,4c2.1,1.5,5,2,7.3,1.6c3.4-0.7,5.8-3.4,6.5-5.9c0.8-3.2-0.3-6.1-2.7-7.7c-2.2-1.5-5.3-1.8-8-0.6
		c-2.7,1.1-4.3,3-5.6,5.7C83,77.2,82.4,78.1,82.9,79.2z"/>
	<path class="st1" d="M114.4,66.9c0.9,0.4,1.2,1.4,0.9,2.3c-0.5,1.2-2.5,4.9-3.3,6.3c-0.5,0.9-1.7,1.6-2.5,1.2
		c-0.9-0.4-0.7-1.7-0.2-2.6c0.9-1.7,2.5-4.9,3.2-6.3C112.8,67,113.6,66.6,114.4,66.9z"/>
	<path class="st1" d="M130.9,63.2c1.6-3.8,3-6.9,4.8-9.4c2.5-3.7,5.6-6.1,8.9-7.3c3.7-1.3,7.4-1.1,10.1,1c1,0.7,2.2,2.2,1.6,2.8
		c-1,1-1.9-0.4-3-1.1c-1.9-1.1-4.9-1.5-7.5-0.5c-1.9,0.7-4.2,2.5-5.9,4.4c-3.5,3.9-6.7,12.6-9.1,18.3c-1.3,3.3-3,7.7-5.3,10.8
		c-1.5,2.2-3.1,4.3-5.2,5.6c-1.6,1.1-3.8,1.5-4.8,0.8c-0.9-0.6-1.4-1.9-1.5-3.4c-0.1-2,0.6-4,1.5-5.6c1.2-2,2.8-3.6,4.2-4.7
		c1.7-1.3,4.7-2.7,5.9-1.8c0.3,0.2,0.1,1.2,0.3,2.1C127.4,71.5,128.9,67.9,130.9,63.2z M120.8,78.3c-1.3,1.3-2.8,3.3-3.5,5.1
		c-0.3,0.8-0.6,2.6,0.3,2.3c1-0.4,1.8-0.9,2.6-1.8c1.5-1.5,2.9-3.2,3.8-4.9c0.5-0.9,1.2-2,0.7-2.5C124.1,75.9,122,77.1,120.8,78.3z"
		/>
	<path class="st1" d="M141.7,66.9c0.9,0.4,1.2,1.4,0.9,2.3c-0.5,1.2-2.5,4.9-3.3,6.3c-0.5,0.9-1.7,1.6-2.5,1.2
		c-0.9-0.4-0.7-1.7-0.2-2.6c0.9-1.7,2.5-4.9,3.2-6.3C140,67,140.9,66.6,141.7,66.9z"/>
	<path class="st1" d="M144.1,80.8c1.7-3.6,2.6-6.1,4.4-8.4c0.7-0.9,2.1-1.5,2.8-0.6c2.2,2.6,5,9,7.2,12.5c0.9,1.5,2.1,0.1,2.5-0.9
		c1.2-2.4,8.3-18.1,9.5-20.5c0.6-1.2,1.6-2.4,2.8-1.8c0.9,0.5,0.6,1.9,0.1,2.9c-1.3,2.7-3.3,6.8-4.8,10.2c-1.3,2.8-3.3,7.6-4.7,10.3
		c-1.3,2.6-2.2,4.1-3.9,4.2c-2,0.1-2.9-1.6-4-3.3c-1.1-1.8-3.9-7.6-4.9-9.1c-0.4-0.6-1.5-0.3-1.8,0.4c-1.8,3.7-2.9,6.5-4.9,10.1
		c-0.6,1.1-1.9,2.2-2.9,1.5c-0.8-0.6-0.1-1.8,0.2-2.6C142.8,83.4,143.2,82.8,144.1,80.8z"/>
	<path class="st1" d="M182.5,64.8c-1.1,3.1-2.2,6-3.3,8.6c-1.3,3.1-2.3,5.4-3.4,7.9c-0.8,1.6-1.6,3.3-2.3,4.6
		c-0.5,0.9-2.3,3.4-3.5,2.7c-0.6-0.4-0.4-1.4-0.1-2.2c1.3-2.9,2.8-5.9,3.8-8.2c1.2-2.5,2.2-5.3,3.3-7.8s2.1-5.2,3-7.4
		c0.3-0.7,1.1-0.8,1.7-0.5C182.6,63,182.8,64,182.5,64.8z"/>
	<path class="st1" d="M196.6,63.2c1.6-3.8,3-6.9,4.8-9.4c2.5-3.7,5.6-6.1,8.9-7.3c3.7-1.3,7.4-1.1,10.1,1c1,0.7,2.2,2.2,1.6,2.8
		c-1,1-1.9-0.4-3-1.1c-1.9-1.1-4.9-1.5-7.5-0.5c-1.9,0.7-4.2,2.5-5.9,4.4c-3.5,3.9-6.7,12.6-9.1,18.3c-1.3,3.3-3.1,7.7-5.3,10.8
		c-1.5,2.2-3.1,4.3-5.2,5.6c-1.6,1.1-3.8,1.5-4.8,0.8c-0.9-0.6-1.4-1.9-1.5-3.4c-0.1-2,0.6-4,1.5-5.6c1.2-2,2.8-3.6,4.2-4.7
		c1.7-1.3,4.6-2.7,5.9-1.8c0.3,0.2,0.1,1.2,0.3,2.1C193.1,71.5,194.6,67.9,196.6,63.2z M186.5,78.3c-1.3,1.3-2.8,3.3-3.5,5.1
		c-0.3,0.8-0.6,2.6,0.3,2.3c1-0.4,1.8-0.9,2.6-1.8c1.5-1.5,2.9-3.2,3.9-4.9c0.5-0.9,1.2-2,0.7-2.5C189.8,75.9,187.7,77.1,186.5,78.3
		z"/>
	<path class="st1" d="M212.8,57c2.5-1.7,5.1-3,8-3c3.8,0,5.2,2.5,5.2,5c-0.1,3.8-3,7.5-4.6,8.9c-0.4,0.4-0.8,1-0.4,1.3
		c2.8,2,4.5,4.9,4.1,8.7c-0.4,3.6-2.2,6-5.1,7.8c-3,1.9-7.1,2.9-10.6,2.8c-5.2,0-9.7-1.4-13.1-3.4c-0.5-0.3-0.2-1.7,0.8-1.3
		c2.9,1.2,6.2,1.9,9.3,2c3.3,0.2,7.3,0,9.9-1.3c3.4-1.6,5.7-3.9,5.9-7.7c0.1-2.7-1.6-4.3-3.8-5.9c-0.5-0.3-0.9-0.4-1.5-0.3
		c-1,0.2-1.8,0.8-2.7-0.6c-0.5-0.8-0.1-1.6,1.1-2.2c1.2-0.6,1.3,0.1,3-1.5c2.3-2,3.8-3.8,4.5-5.8c0.6-1.6-0.2-3.6-1.8-3.7
		c-2.2-0.1-3.8,0.7-5.8,2.1c-1.6,1.1-2.5,2-3.9,3.5c-0.9,1-2.6,0.6-1.9-1.3C209.9,59.6,211.7,57.8,212.8,57z"/>
	<path class="st1" d="M238.2,71.4c1-1.2,1.9-2.2,2.6-2.6c3.3-2.3,7.8-2.6,11.7-1.1c2.1,0.8,4.2,2.8,4.9,5.4
		c1.1,3.8,0.5,7.3-1.8,11.3c-1,1.7-2.3,3.5-3.3,4.3c-0.5,0.4-1.1,1-1.6,0.6c-0.4-0.3-0.4-0.9-0.1-1.4c0.8-1.4,1.2-2.2,2-3.7
		c1.9-3.7,3.4-9,0.7-12.2c-1.8-2.2-6.1-2.8-9.2-1.4c-1.6,0.7-2.8,1.8-3.5,2.9c-0.4,0.6-0.8,1-0.7,1.7c0.2,2.3-0.1,4.7-0.6,6.4
		c-1.1,3.5-3.7,6.6-7.1,8c-3,1.3-6.5,1.2-9.2,0.6c-0.2,0-4.2-1.4-2.9-2.8c0.3-0.4,0.9-0.2,1.3,0.1c1.2,0.8,3.7,1,5.3,1
		c2.4,0,4.3-0.8,5.9-2c2.1-1.6,3.5-3.9,4.1-7.1c0.4-2.3,0.1-3.8,0.2-6.1C236.8,71.6,237.9,71.8,238.2,71.4z"/>
</g>
<line class="st2" x1="40.9" y1="98.3" x2="68.9" y2="52.1"/>
<line class="st3" x1="44.2" y1="18.2" x2="44.2" y2="10.1"/>
<line class="st3" x1="50.6" y1="22.8" x2="55" y2="16"/>
<line class="st3" x1="36.9" y1="22.3" x2="32.8" y2="15.2"/>
<line class="st3" x1="53.3" y1="26.5" x2="57.2" y2="25.4"/>
<line class="st3" x1="33.7" y1="25.9" x2="29.8" y2="24.8"/>
</svg>
